{"title":"Open.Slather.s01e01.PDTV.x264.Hector","uid":11985219,"size":246737333,"categoryP":"video","categoryS":"tv_shows","magnet":"?xt=urn:btih:868fcd2baf9370ef4b81648c46c7047a21f0d477&amp;dn=Open.Slather.s01e01.PDTV.x264.Hector&amp;tr=udp%3A%2F%2Ftracker.openbittorrent.com%3A80&amp;tr=udp%3A%2F%2Fopen.demonii.com%3A1337&amp;tr=udp%3A%2F%2Ftracker.coppersurfer.tk%3A6969&amp;tr=udp%3A%2F%2Fexodus.desync.com%3A6969","seeders":16,"leechers":0,"uploader":"toots2boots","files":1,"time":1433331669,"description":"Open Slather is an Australian sketch comedy television series which is screening on the The Comedy Channel on Foxtel from 24 May 2015 at 7:30pm. The 20 episode series is produced by Rick McKenna and Laura Waters. The entire series is filmed in front of a live audience.\nThe biggest names in Australian comedy have joined forces with the best new talent for a no-holds-barred send up of pop culture, politics, sport, music and media.\nOpen Slather is an Australian sketch comedy television series which is screening on the The Comedy Channel on Foxtel from 24 May 2015 at 7:30pm. The 20 episode series is produced by Rick McKenna and Laura Waters. The entire series is filmed in front of a live audience\n\nGeneral\nComplete name                            : G:Torrent uploadOpen.Slather.s01e01.PDTV.x264.HectorOpen.Slather.s01e01.PDTV.x264.Hector.mp4\nFormat                                   : MPEG-4\nFormat profile                           : Base Media / Version 2\nCodec ID                                 : mp42\nFile size                                : 235 MiB\nDuration                                 : 46mn 29s\nOverall bit rate mode                    : Variable\nOverall bit rate                         : 708 Kbps\nEncoded date                             : UTC 2015-05-24 11:23:33\nTagged date                              : UTC 2015-05-24 11:31:11\nWriting application                      : HandBrake 0.9.9 2013051800\n\nVideo\nID                                       : 1\nFormat                                   : AVC\nFormat/Info                              : Advanced Video Codec\nFormat profile                           : &lt;a class=&quot;__cf_email__&quot; href=&quot;/cdn-cgi/l/email-protection&quot; data-cfemail=&quot;bcf4d5dbd4fcf08f928d&quot;&gt;[email&amp;#160;protected]&lt;/a&gt;&lt;script data-cfhash='f9e31' type=&quot;text/javascript&quot;&gt;\n/* &lt;![CDATA[ */!function(){try{var t=&quot;currentScript&quot;in document?document.currentScript:function(){for(var t=document.getElementsByTagName(&quot;script&quot;),e=t.length;e--;)if(t[e].getAttribute(&quot;data-cfhash&quot;))return t[e]}();if(t&amp;&amp;t.previousSibling){var e,r,n,i,c=t.previousSibling,a=c.getAttribute(&quot;data-cfemail&quot;);if(a){for(e=&quot;&quot;,r=parseInt(a.substr(0,2),16),n=2;a.length-n;n+=2)i=parseInt(a.substr(n,2),16)^r,e+=String.fromCharCode(i);e=document.createTextNode(e),c.parentNode.replaceChild(e,c)}t.parentNode.removeChild(t);}}catch(u){}}()/* ]]&gt; */&lt;/script&gt;\nFormat settings, CABAC                   : Yes\nFormat settings, ReFrames                : 4 frames\nCodec ID                                 : avc1\nCodec ID/Info                            : Advanced Video Coding\nDuration                                 : 46mn 29s\nBit rate mode                            : Variable\nBit rate                                 : 556 Kbps\nWidth                                    : 716 pixels\nHeight                                   : 402 pixels\nDisplay aspect ratio                     : 16:9\nFrame rate mode                          : Constant\nFrame rate                               : 25.000 fps\nColor space                              : YUV\nChroma subsampling                       : 4:2:0\nBit depth                                : 8 bits\nScan type                                : Progressive\nBits/(Pixel*Frame)                       : 0.077\nStream size                              : 185 MiB (79%)\nWriting library                          : x264 core 130 r2273 b3065e6\nEncoding settings                        : cabac=1 / ref=1 / deblock=1:0:0 / analyse=0x3:0x113 / me=hex / subme=2 / psy=1 / psy_rd=1.00:0.00 / mixed_ref=0 / me_range=16 / chroma_me=1 / trellis=0 / 8x8dct=1 / cqm=0 / deadzone=21,11 / fast_pskip=1 / chroma_qp_offset=0 / threads=12 / lookahead_threads=3 / sliced_threads=0 / nr=0 / decimate=1 / interlaced=0 / bluray_compat=0 / constrained_intra=0 / bframes=3 / b_pyramid=2 / b_adapt=1 / b_bias=0 / direct=1 / weightb=1 / open_gop=0 / weightp=1 / keyint=250 / keyint_min=25 / scenecut=40 / intra_refresh=0 / rc_lookahead=10 / rc=crf / mbtree=1 / crf=21.0 / qcomp=0.60 / qpmin=0 / qpmax=69 / qpstep=4 / vbv_maxrate=17500 / vbv_bufsize=17500 / crf_max=0.0 / nal_hrd=none / ip_ratio=1.40 / aq=1:1.00\nEncoded date                             : UTC 2015-05-24 11:23:33\nTagged date                              : UTC 2015-05-24 11:31:11\nColor primaries                          : BT.709-5, BT.1361, IEC 61966-2-4, SMPTE RP177\nTransfer characteristics                 : BT.709-5, BT.1361\nMatrix coefficients                      : BT.709-5, BT.1361, IEC 61966-2-4 709, SMPTE RP177\n\nAudio\nID                                       : 2\nFormat                                   : AAC\nFormat/Info                              : Advanced Audio Codec\nFormat profile                           : LC\nCodec ID                                 : 40\nDuration                                 : 46mn 29s\nBit rate mode                            : Variable\nBit rate                                 : 148 Kbps\nMaximum bit rate                         : 160 Kbps\nChannel(s)                               : 2 channels\nChannel positions                        : Front: L R\nSampling rate                            : 48.0 KHz\nCompression mode                         : Lossy\nStream size                              : 49.1 MiB (21%)\nEncoded date                             : UTC 2015-05-24 11:23:33\nTagged date                              : UTC 2015-05-24 11:31:09","torrent":{"xt":"urn:btih:868fcd2baf9370ef4b81648c46c7047a21f0d477","amp;dn":"Open.Slather.s01e01.PDTV.x264.Hector","amp;tr":["udp%3A%2F%2Ftracker.openbittorrent.com%3A80","udp%3A%2F%2Fopen.demonii.com%3A1337","udp%3A%2F%2Ftracker.coppersurfer.tk%3A6969","udp%3A%2F%2Fexodus.desync.com%3A6969"],"infoHash":"868fcd2baf9370ef4b81648c46c7047a21f0d477","infoHashBuffer":{"type":"Buffer","data":[134,143,205,43,175,147,112,239,75,129,100,140,70,199,4,122,33,240,212,119]},"announce":[],"urlList":[]}}